<svg width="19" height="19" viewBox="0 0 19 19" fill="none" xmlns="http://www.w3.org/2000/svg">
<path d="M10.1667 19C9.72144 19 9.27618 19 8.83093 19C8.61201 18.9711 8.39272 18.9454 8.17454 18.9132C6.30113 18.6348 4.64292 17.8829 3.22589 16.6247C1.57806 15.1616 0.544326 13.3438 0.148419 11.1711C0.0879382 10.8386 0.0489783 10.5016 0 10.1668C0 9.72143 0 9.27606 0 8.83068C0.0278286 8.61728 0.0519466 8.40313 0.0834857 8.19009C0.354721 6.34774 1.0675 4.69615 2.30866 3.30585C4.65108 0.681128 7.59163 -0.400011 11.0646 0.131837C13.5046 0.505578 15.4935 1.73629 17.0051 3.68961C18.6314 5.79065 19.254 8.18341 18.9071 10.8122C18.6626 12.6653 17.9049 14.3043 16.6752 15.7132C15.2063 17.3959 13.3711 18.4492 11.17 18.8515C10.8376 18.9124 10.5014 18.951 10.1667 19ZM10.3322 7.89318C10.3229 7.85124 10.3177 7.83936 10.3177 7.82749C10.317 7.48752 10.3159 7.14755 10.3159 6.80721C10.3162 6.3637 10.4747 6.20559 10.9184 6.20485C11.2813 6.20448 11.6442 6.20485 12.0134 6.20485C12.0134 5.57056 12.0134 4.95669 12.0134 4.33503C11.3463 4.33503 10.6917 4.31536 10.0383 4.33948C9.0632 4.37548 8.34523 4.97154 8.12482 5.92538C8.05358 6.23454 8.04505 6.56077 8.03058 6.87996C8.01536 7.21102 8.02724 7.54282 8.02724 7.89466C7.65174 7.89466 7.30295 7.89466 6.94675 7.89466C6.94675 8.54899 6.94675 9.18253 6.94675 9.83945C7.30963 9.83945 7.66361 9.83945 8.03911 9.83945C8.03911 11.6829 8.03911 13.5026 8.03911 15.3246C8.80681 15.3246 9.55187 15.3246 10.3151 15.3246C10.3151 13.4937 10.3151 11.6729 10.3151 9.83314C10.8361 9.83314 11.3396 9.83314 11.8568 9.83314C11.9236 9.18104 11.9889 8.54676 12.0561 7.89318C11.4709 7.89318 10.9047 7.89318 10.3322 7.89318Z" fill="#2B4A88"/>
</svg>
