<svg width="19" height="19" viewBox="0 0 19 19" fill="none" xmlns="http://www.w3.org/2000/svg">
<path d="M8.83203 0C9.27734 0 9.72266 0 10.168 0C10.4667 0.0400722 10.7665 0.0708684 11.0634 0.122072C12.7857 0.419645 14.3231 1.12128 15.6505 2.26148C17.3757 3.74341 18.4519 5.60306 18.8545 7.84524C18.9132 8.17176 18.9521 8.50235 19 8.83072C19 9.27597 19 9.72122 19 10.1665C18.9878 10.2199 18.9714 10.273 18.964 10.3268C18.9206 10.6444 18.8976 10.9661 18.8349 11.28C18.3695 13.6134 17.2095 15.5328 15.331 16.9921C13.2228 18.6299 10.8207 19.2558 8.18002 18.9063C6.32195 18.6603 4.67801 17.9019 3.26711 16.6637C1.59385 15.1955 0.54625 13.3652 0.148066 11.1709C0.0875781 10.838 0.0489844 10.5015 0 10.1665C0 9.72122 0 9.27597 0 8.83072C0.0274609 8.61738 0.0519531 8.40366 0.083125 8.19068C0.35291 6.34291 1.08285 4.70032 2.3108 3.29186C3.78627 1.59918 5.63061 0.540974 7.84715 0.146189C8.17334 0.0879362 8.50361 0.048235 8.83203 0ZM14.9187 9.49859C14.8979 9.49859 14.9395 9.49822 14.9187 9.49859C14.8861 8.60958 14.9343 7.71835 14.8775 6.83082C14.8397 6.2431 14.6385 5.69841 14.2712 5.22608C13.6396 4.41425 12.7638 4.10406 11.7819 4.08773C10.2615 4.06213 8.74037 4.06844 7.21963 4.08625C6.51158 4.09478 5.83693 4.26695 5.25691 4.70588C4.42455 5.33591 4.10467 6.22009 4.08797 7.2167C4.06273 8.73685 4.06867 10.2581 4.08686 11.7783C4.09539 12.4929 4.2698 13.173 4.71771 13.7555C5.34857 14.577 6.22881 14.8931 7.21777 14.9098C8.73814 14.9358 10.2593 14.9295 11.78 14.9109C12.4947 14.9024 13.1742 14.7262 13.7572 14.2783C14.5725 13.652 14.879 12.7801 14.9135 11.7975C14.9399 11.0321 14.9187 10.2652 14.9187 9.49859Z" fill="#2B4A88"/>
<path d="M4.99826 9.49933C5.02758 8.64632 5.0376 7.7933 5.09104 6.94288C5.15672 5.89581 5.89371 5.12776 6.93797 5.09585C8.54926 5.0465 10.1624 5.05652 11.7748 5.06134C12.2398 5.06282 12.697 5.16634 13.0918 5.43906C13.6188 5.80267 13.886 6.334 13.906 6.94993C13.9502 8.31424 13.9579 9.68003 13.9587 11.0455C13.9587 11.4937 13.9375 11.9523 13.8437 12.3882C13.6481 13.2973 12.9827 13.8717 12.0528 13.9043C10.6764 13.9525 9.29775 13.9533 7.91988 13.9566C7.50166 13.9577 7.07602 13.9381 6.66633 13.8616C5.74416 13.6902 5.14818 13.0045 5.09104 12.0558C5.03908 11.205 5.02721 10.352 4.99826 9.49933ZM9.49889 6.70653C7.94623 6.7069 6.709 7.94283 6.70752 9.49451C6.70566 11.0462 7.94103 12.2862 9.49184 12.2903C11.0515 12.2944 12.2951 11.0521 12.2925 9.49266C12.2895 7.9406 11.0519 6.70615 9.49889 6.70653ZM12.4097 7.23711C12.7653 7.23822 13.0599 6.94807 13.0636 6.59373C13.0673 6.23939 12.7775 5.94181 12.4235 5.93551C12.0609 5.9292 11.7607 6.22566 11.7618 6.58928C11.7629 6.94547 12.0531 7.236 12.4097 7.23711Z" fill="#2B4A88"/>
<path d="M9.51484 7.68124C10.5235 7.68458 11.3228 8.50087 11.3176 9.52234C11.3124 10.5204 10.4968 11.3189 9.48553 11.3156C8.47801 11.3122 7.67793 10.4948 7.68275 9.4741C7.68758 8.47749 8.50398 7.67828 9.51484 7.68124Z" fill="#2B4A88"/>
</svg>
