<svg width="19" height="19" viewBox="0 0 19 19" fill="none" xmlns="http://www.w3.org/2000/svg">
<path d="M9.49869 19C4.22761 18.99 -0.012269 14.7268 2.66756e-05 9.44919C0.0121584 4.23284 4.28778 -0.0129203 9.51558 2.95451e-05C14.7786 0.0131434 19.0105 4.26776 19 9.53558C18.9897 14.7565 14.7194 19.01 9.49869 19ZM9.77117 3.97319C9.77117 4.01761 9.77117 4.05794 9.77117 4.0981C9.77117 6.51284 9.77182 8.92775 9.77117 11.3425C9.77084 12.4423 8.78308 13.2655 7.70565 13.0661C6.8202 12.9024 6.2064 12.0924 6.28542 11.1923C6.35985 10.3454 7.02562 9.67704 7.87517 9.60967C8.11961 9.59033 8.36651 9.60115 8.61226 9.5982C8.64127 9.59787 8.67029 9.5982 8.70242 9.5982C8.70242 8.94939 8.70242 8.31157 8.70242 7.67473C8.50717 7.64293 7.66024 7.67522 7.3758 7.72423C5.40816 8.06273 4.05662 9.97587 4.39205 11.9475C4.72026 13.8766 6.46543 15.2134 8.40553 15.0042C9.60001 14.8755 10.5194 14.2843 11.1607 13.2714C11.5414 12.6701 11.7083 12.0044 11.7073 11.2936C11.7052 9.88408 11.7067 8.47451 11.7067 7.0651C11.7067 7.02805 11.7067 6.991 11.7067 6.93232C12.4282 7.66325 13.3079 8.00306 14.2909 8.13797C14.4134 7.5172 14.5345 6.90265 14.6573 6.28056C14.5985 6.26958 14.5486 6.25778 14.4981 6.25106C13.7923 6.15779 13.1984 5.84092 12.691 5.34981C12.2962 4.96771 11.9887 4.52249 11.7367 4.03695C11.7103 3.9863 11.6809 3.96811 11.6236 3.96827C11.0335 3.9704 10.4433 3.96942 9.8533 3.96958C9.8292 3.96975 9.8051 3.97171 9.77117 3.97319Z" fill="#2B4A88"/>
</svg>
