<svg width="19" height="19" viewBox="0 0 19 19" fill="none" xmlns="http://www.w3.org/2000/svg">
<path d="M9.48293 3.89193e-07C14.7384 -0.00148393 18.9985 4.24292 19 9.48256C19.0015 14.7526 14.7517 19.0015 9.47996 19C4.24234 18.9978 -0.00148399 14.7348 3.89276e-07 9.47959C0.00148476 4.25702 4.25867 0.00148471 9.48293 3.89193e-07ZM4.46426 12.9633C5.84027 13.8324 7.33356 14.0817 8.90328 13.7663C11.7874 13.1874 13.7735 10.7398 13.8314 7.73329C13.8359 7.501 13.9027 7.35256 14.0793 7.20116C14.3561 6.96293 14.5959 6.6824 14.8519 6.41967C14.8326 6.40186 14.8133 6.38331 14.794 6.36549C14.4697 6.44936 14.1461 6.53248 13.8188 6.61709C14.1008 6.24972 14.3636 5.90758 14.6255 5.56619C14.6003 5.54244 14.5751 5.51943 14.5498 5.49568C14.2797 5.60256 14.0073 5.70423 13.7394 5.81778C13.4455 5.94321 13.2213 5.91946 12.9415 5.70052C12.2357 5.14984 11.4334 5.1016 10.6452 5.51498C9.87035 5.92094 9.48293 6.59259 9.48738 7.47799C9.48813 7.62271 9.48738 7.76743 9.48738 7.93145C7.6757 7.8038 6.21656 7.0275 5.03945 5.68122C4.5125 6.67497 4.67727 7.49877 5.63691 8.58158C5.2918 8.49475 5.02981 8.42795 4.7307 8.35299C4.78711 9.41651 5.35711 10.0726 6.29895 10.5075C6.04957 10.5223 5.80094 10.5372 5.52262 10.5542C5.66586 10.9914 5.90484 11.3417 6.26777 11.5621C6.62254 11.7781 7.02258 11.9183 7.40926 12.0957C6.54387 12.7354 5.5575 13.0019 4.46426 12.9633Z" fill="#2B4A88"/>
</svg>
